<?xml version="1.0" standalone="no"?>
<!DOCTYPE svg PUBLIC "-//W3C//DTD SVG 20010904//EN"
 "http://www.w3.org/TR/2001/REC-SVG-20010904/DTD/svg10.dtd">
<svg version="1.0" xmlns="http://www.w3.org/2000/svg"
 width="374.000000pt" height="406.000000pt" viewBox="0 0 374.000000 406.000000"
 preserveAspectRatio="xMidYMid meet">
<metadata>
Created by potrace 1.16, written by Peter Selinger 2001-2019
</metadata>
<g transform="translate(0.000000,406.000000) scale(0.100000,-0.100000)"
fill="#000000" stroke="none">
<path d="M1784 4023 c-9 -21 -22 -54 -29 -73 -7 -19 -22 -55 -33 -80 -11 -25
-34 -83 -52 -130 -18 -47 -36 -89 -40 -93 -4 -5 -18 21 -31 58 -32 87 -127
198 -153 176 -13 -11 -16 -34 -16 -126 l0 -113 -77 38 c-60 30 -81 37 -96 29
-13 -7 -17 -18 -14 -32 11 -42 60 -356 74 -469 5 -35 3 -38 -21 -38 -18 0 -26
-5 -26 -18 0 -12 -15 -23 -48 -34 -60 -22 -135 -75 -129 -92 3 -7 -8 -20 -23
-29 -16 -10 -38 -38 -50 -63 -35 -71 -24 -133 46 -270 l57 -111 -80 -82 -81
-81 -21 44 c-11 24 -26 66 -32 93 -14 55 -25 73 -47 73 -9 0 -90 -74 -182
-165 -160 -160 -167 -165 -207 -165 -40 0 -46 -5 -258 -214 -165 -163 -216
-218 -213 -234 1 -12 113 -132 246 -267 193 -194 249 -245 270 -245 18 0 45
-19 92 -65 l67 -64 -76 -3 c-58 -2 -76 -7 -79 -18 -3 -20 952 -975 975 -975
15 0 19 11 23 68 l5 67 145 -145 c129 -129 148 -145 178 -145 30 0 49 16 182
152 l149 153 1 -77 c0 -68 2 -78 18 -78 9 0 228 210 495 478 346 346 477 483
477 500 0 21 -4 22 -77 22 l-76 0 61 60 c49 49 67 60 93 60 30 0 58 25 286
252 139 139 253 259 253 268 0 8 -100 113 -222 232 -216 211 -224 217 -264
218 -40 0 -46 6 -225 185 -212 214 -220 218 -231 115 -6 -66 -33 -150 -48
-150 -5 0 -35 30 -68 67 l-61 68 56 105 c44 85 56 117 60 167 7 81 1 102 -47
150 -22 23 -40 47 -40 55 0 22 -128 98 -165 98 -7 0 -15 7 -19 15 -3 8 -17 20
-32 25 -16 6 -24 16 -21 24 3 7 13 65 22 127 8 63 25 169 36 237 12 68 18 129
15 137 -8 23 -41 18 -107 -16 -34 -17 -63 -28 -66 -26 -2 3 -7 55 -10 117 -8
139 -15 145 -89 64 -37 -42 -59 -77 -74 -121 -12 -35 -25 -65 -29 -67 -3 -2
-33 62 -65 142 -97 243 -112 272 -137 272 l-22 0 5 -382 c3 -211 4 -389 1
-395 -3 -7 -9 -13 -15 -13 -7 0 -8 122 -3 395 l7 395 -26 0 c-20 0 -29 -8 -42
-37z m176 -736 c0 -7 -8 -17 -19 -24 -23 -14 -65 -99 -56 -113 12 -19 26 -10
41 26 12 29 18 33 29 24 10 -9 20 -7 40 6 20 13 37 15 83 9 31 -4 65 -8 74 -9
28 -4 33 -16 7 -16 -34 0 -68 -25 -53 -40 8 -8 19 -8 40 1 36 14 151 15 184 1
23 -10 22 -11 -16 -11 -24 -1 -47 -7 -54 -16 -16 -20 -6 -23 100 -27 65 -3 99
-10 143 -31 31 -14 57 -28 57 -30 0 -2 -24 -2 -54 1 -50 4 -161 -10 -203 -25
-12 -4 -10 1 6 14 14 11 21 25 17 31 -10 17 -78 -20 -100 -53 -24 -36 -32 -91
-16 -110 17 -21 30 -9 30 29 0 31 3 33 58 51 32 11 98 20 153 23 82 4 101 1
136 -17 67 -34 86 -65 81 -136 -4 -59 -10 -75 -77 -200 -40 -73 -37 -71 -50
-46 -9 15 -7 27 8 53 10 18 29 61 41 95 13 35 26 60 31 57 5 -3 12 2 15 11 7
18 -27 60 -66 80 -59 29 -102 27 -240 -12 -25 -7 -25 -6 -7 20 21 32 22 47 3
47 -18 0 -55 -50 -66 -91 -10 -35 -3 -89 12 -89 6 0 31 -18 56 -41 26 -23 65
-50 88 -60 23 -11 56 -41 78 -68 20 -27 69 -80 107 -118 78 -75 153 -187 175
-259 20 -69 17 -98 -5 -36 -17 51 -46 92 -63 92 -14 0 -9 -27 13 -64 14 -24
23 -65 30 -133 8 -84 15 -109 49 -178 29 -57 40 -93 40 -124 l0 -44 -25 23
c-14 13 -25 34 -25 47 0 54 -56 140 -85 129 -16 -6 -16 -8 -1 -29 48 -64 56
-101 50 -204 -6 -82 -4 -104 10 -132 22 -42 13 -51 -19 -21 -36 34 -53 14 -26
-31 26 -45 43 -123 35 -165 -7 -38 -24 -46 -24 -11 0 13 -4 27 -10 33 -5 5
-17 47 -25 92 -9 45 -25 103 -35 128 -27 62 -78 134 -95 134 -21 0 -19 -17 5
-50 11 -16 34 -57 50 -92 38 -82 65 -254 48 -314 l-11 -39 -13 45 c-8 25 -15
79 -17 120 -2 56 -9 88 -27 125 -14 28 -29 49 -35 47 -13 -4 -10 -27 10 -82
35 -94 2 -260 -63 -323 l-27 -26 1 62 c0 34 5 71 11 82 19 35 20 89 2 93 -12
2 -18 -8 -23 -38 -5 -34 -21 -57 -89 -128 -72 -77 -85 -96 -101 -152 -11 -36
-22 -69 -24 -74 -7 -13 -23 31 -28 78 -2 21 -8 44 -14 51 -9 10 -3 23 24 53
36 40 47 72 23 72 -14 0 -71 -65 -109 -125 -34 -54 -61 -141 -55 -173 3 -15
-5 -73 -19 -130 -20 -86 -54 -295 -54 -339 0 -33 -18 -8 -28 40 -23 102 -26
256 -7 322 9 33 16 69 16 80 -4 91 0 128 24 195 41 118 47 260 10 260 -12 0
-15 -16 -15 -80 0 -62 -7 -100 -30 -170 -32 -97 -39 -184 -17 -214 11 -15 11
-24 -2 -50 -9 -18 -26 -40 -37 -49 -21 -16 -22 -15 -29 30 -4 26 -20 81 -37
122 -53 135 -56 218 -8 316 24 49 25 65 6 65 -8 0 -27 -25 -42 -56 -21 -43
-29 -76 -32 -138 -3 -58 -11 -94 -28 -128 -32 -63 -44 -68 -44 -19 0 23 -14
82 -31 133 -24 73 -30 106 -28 162 2 58 -1 72 -14 74 -12 2 -17 -8 -23 -45 -8
-51 6 -127 45 -258 16 -52 20 -83 15 -123 -5 -43 -4 -52 9 -52 8 0 17 6 20 13
2 6 12 -13 22 -43 21 -65 31 -225 16 -260 -8 -20 -10 -12 -10 48 -1 98 -33
162 -59 116 -12 -22 -15 -16 -48 113 -16 61 -32 109 -35 107 -4 -2 -13 13 -20
33 -19 61 -45 106 -94 166 -43 53 -75 72 -75 46 0 -7 16 -31 35 -55 38 -46 41
-64 22 -136 -17 -64 -24 -67 -36 -17 -19 78 -61 146 -117 195 -60 51 -75 73
-84 124 -3 22 -12 36 -23 38 -23 5 -23 -51 -1 -93 9 -16 17 -52 18 -80 l1 -50
43 -3 c39 -3 42 -5 41 -30 -2 -24 -2 -24 -6 -4 -3 17 -11 22 -34 22 -18 0 -28
-4 -24 -10 3 -6 2 -10 -3 -10 -17 0 -91 105 -107 151 -28 78 -30 147 -6 214
27 75 29 87 13 92 -7 3 -23 -18 -38 -52 -20 -43 -27 -77 -30 -143 -4 -110 -8
-137 -20 -135 -21 4 -27 68 -16 160 15 113 38 184 86 256 41 62 43 67 18 67
-18 0 -73 -75 -99 -138 -8 -20 -26 -91 -39 -156 -13 -66 -26 -122 -29 -124
-11 -11 -19 11 -23 67 -4 49 0 70 22 117 19 40 23 61 16 68 -7 7 -18 2 -34
-19 -31 -38 -43 -27 -20 17 13 26 17 60 18 159 1 121 2 127 29 162 31 41 35
60 10 55 -25 -5 -73 -78 -80 -123 -3 -22 -14 -50 -24 -63 l-17 -23 -7 22 c-11
33 4 87 42 162 29 56 37 85 45 160 6 62 16 108 33 141 23 48 24 66 5 66 -14 0
-41 -46 -61 -103 -18 -49 -18 -50 -12 -12 15 99 99 246 180 313 24 20 69 68
100 106 33 40 71 75 92 85 20 9 56 34 80 56 23 22 51 43 62 47 14 5 19 17 19
44 0 39 -46 134 -65 134 -22 0 -25 -13 -9 -38 8 -13 13 -26 11 -28 -3 -3 -36
4 -73 15 -106 32 -197 11 -240 -55 -16 -24 -16 -26 5 -45 11 -11 21 -25 21
-32 0 -7 16 -46 35 -86 24 -51 33 -77 26 -84 -13 -13 -7 -19 -64 78 -95 165
-86 267 28 311 57 21 204 15 285 -12 49 -17 55 -22 55 -46 1 -36 22 -59 31
-34 12 30 -4 97 -28 123 -34 37 -78 57 -92 43 -8 -8 -5 -16 14 -31 14 -12 18
-19 9 -16 -56 18 -148 29 -200 24 -55 -5 -59 -4 -40 9 45 32 100 47 191 53 75
5 95 9 95 21 0 11 -15 17 -50 20 l-50 5 66 13 c54 10 75 9 120 -2 36 -10 57
-11 64 -5 13 14 -21 39 -52 39 -13 0 -23 4 -23 10 0 5 8 9 18 8 9 -1 42 1 73
6 44 6 63 4 87 -8 22 -12 33 -13 38 -4 4 7 14 -3 26 -26 10 -20 23 -36 28 -36
18 0 10 42 -17 91 -14 27 -24 51 -21 54 14 15 68 -112 68 -160 0 -26 28 -36
34 -12 2 6 9 35 15 62 18 73 81 161 81 112z m1030 -882 l175 -175 46 0 c33 0
51 -6 63 -19 20 -22 18 -32 -23 -121 l-27 -60 -99 100 c-80 80 -95 100 -77
100 12 0 22 3 22 8 0 4 -61 68 -135 142 -118 118 -135 139 -135 167 0 18 3 33
8 33 4 0 86 -79 182 -175z m-2127 113 c5 -31 -2 -40 -114 -153 -65 -66 -119
-124 -119 -128 0 -5 10 -5 23 -2 13 4 -18 -34 -83 -99 -57 -58 -105 -106 -106
-106 -1 0 -16 34 -34 76 l-33 75 26 27 c21 20 35 26 64 24 37 -3 43 3 198 158
88 88 163 160 166 160 4 0 9 -15 12 -32z m2580 -508 c-9 -14 -28 -43 -42 -65
-14 -22 -48 -67 -75 -100 -48 -58 -105 -166 -107 -202 -1 -10 -5 7 -10 37 -16
100 10 290 53 390 11 25 26 61 34 79 l15 35 74 -74 c74 -74 75 -74 58 -100z
m-3033 98 c15 -35 37 -94 49 -133 24 -84 44 -259 33 -298 l-7 -28 -14 38 c-18
51 -69 128 -122 189 -24 27 -59 73 -78 102 l-34 53 69 70 c38 38 70 69 72 69
2 0 16 -28 32 -62z m3165 -198 l90 -90 -240 -240 -240 -240 -107 0 c-60 0
-108 3 -108 8 0 9 203 212 212 212 3 0 9 -18 13 -41 9 -53 17 -43 26 33 l7 61
103 103 103 103 -23 25 -24 25 43 66 c23 36 45 65 49 65 3 0 47 -41 96 -90z
m-3320 18 l45 -62 -20 -21 -20 -21 100 -99 c101 -101 120 -132 120 -198 0 -16
4 -26 10 -22 6 3 10 19 10 36 0 16 3 29 7 29 10 0 223 -213 223 -222 0 -5 -48
-8 -108 -8 l-107 0 -240 240 -240 240 85 85 c46 47 86 85 87 85 2 0 23 -28 48
-62z"/>
<path d="M1572 2834 c-44 -22 -61 -39 -104 -105 -28 -43 -55 -79 -60 -79 -4 0
-30 -14 -58 -31 -37 -23 -58 -45 -76 -81 -14 -27 -52 -78 -84 -113 -36 -39
-63 -78 -69 -101 -21 -74 -12 -78 34 -16 63 86 147 126 101 49 -69 -114 -87
-159 -95 -229 -5 -40 -16 -90 -25 -110 -19 -44 -21 -62 -3 -32 7 12 26 33 43
48 17 14 42 49 54 78 l23 53 9 -38 c7 -34 4 -47 -26 -100 -18 -34 -36 -79 -39
-100 l-6 -38 40 35 c21 20 41 36 44 36 2 0 1 -24 -2 -52 -4 -38 -14 -62 -34
-86 -28 -32 -36 -52 -21 -52 4 0 22 17 40 37 20 23 31 30 26 18 -4 -11 -8 -49
-9 -85 0 -36 -5 -71 -9 -79 -5 -7 -3 -18 3 -24 8 -8 11 -7 11 3 1 26 16 -10
30 -70 7 -30 30 -91 52 -134 35 -75 38 -78 38 -44 0 19 -7 55 -15 78 -8 23
-15 60 -15 80 0 32 7 45 45 81 25 24 49 54 52 68 5 20 7 21 15 7 6 -10 4 -23
-6 -38 -17 -26 -46 -129 -39 -140 7 -13 23 -9 23 5 0 7 7 37 16 67 22 73 34
50 34 -66 0 -64 6 -112 20 -158 12 -36 23 -66 26 -66 3 0 2 20 -1 45 -8 50 10
138 31 156 11 9 14 7 14 -9 0 -47 23 -69 33 -32 17 64 97 -36 97 -121 l0 -43
47 75 c26 41 48 75 49 77 1 2 20 -6 43 -17 46 -24 66 -50 76 -100 7 -34 8 -32
43 57 37 97 58 115 84 72 18 -29 26 -25 34 15 5 28 9 33 19 25 21 -17 38 -106
30 -155 -3 -25 -4 -45 -1 -45 3 0 14 30 26 66 14 47 20 94 20 162 0 101 13
116 28 32 4 -24 13 -45 20 -48 18 -6 15 30 -8 99 -12 34 -18 70 -14 82 6 19 7
18 19 -9 7 -16 31 -46 54 -67 48 -45 50 -65 22 -172 -10 -38 -16 -75 -14 -82
7 -19 81 137 94 198 6 30 16 57 21 60 14 9 20 133 8 166 l-10 28 25 -28 c34
-38 52 -25 21 16 -16 21 -25 51 -29 90 -3 31 -4 57 -1 57 2 0 22 -16 43 -36
l40 -35 -6 38 c-3 21 -18 62 -34 90 -27 49 -38 111 -23 126 4 4 17 -15 29 -41
12 -27 33 -57 47 -68 13 -10 31 -30 41 -44 21 -31 22 -20 1 28 -9 20 -20 70
-25 110 -6 54 -18 90 -45 140 -62 115 -66 123 -61 128 13 13 72 -33 112 -88
46 -62 55 -58 34 16 -6 23 -33 62 -69 101 -32 35 -70 86 -84 114 -20 39 -38
57 -83 84 -45 26 -68 49 -106 105 -57 87 -105 121 -179 129 -67 7 -119 -8
-171 -49 l-38 -30 -34 27 c-82 62 -167 72 -253 29z m189 -102 c75 -49 81 -59
67 -126 -9 -46 -8 -73 2 -125 17 -89 22 -94 37 -36 15 59 17 137 4 182 -9 30
-6 35 29 67 54 48 92 66 142 66 39 0 46 -4 93 -57 27 -31 86 -93 131 -137 89
-89 108 -127 124 -235 15 -105 0 -169 -59 -260 -27 -42 -56 -93 -65 -114 -18
-45 -27 -42 -55 17 -27 55 -57 84 -72 69 -8 -8 -4 -21 14 -45 13 -18 28 -43
32 -55 5 -19 3 -23 -17 -23 -13 0 -33 -7 -44 -16 -18 -14 -16 -15 29 -10 47 6
47 5 47 -24 0 -29 0 -29 -50 -23 -61 7 -70 -14 -10 -23 44 -7 46 -10 25 -40
l-14 -21 -57 28 c-31 16 -63 29 -70 29 -26 0 -14 -18 18 -29 18 -6 43 -18 56
-27 35 -23 12 -44 -49 -44 -56 0 -158 35 -166 57 -8 20 30 57 129 123 44 30
86 63 92 72 15 25 -14 52 -56 51 -45 -1 -343 -1 -392 0 -41 1 -69 -23 -59 -50
3 -8 36 -34 73 -59 37 -24 87 -62 111 -83 38 -33 42 -41 30 -54 -36 -45 -195
-74 -222 -41 -15 18 -8 25 54 51 20 8 37 19 37 24 0 15 -16 11 -75 -18 -54
-27 -55 -27 -70 -8 -21 29 -19 33 25 40 51 9 41 28 -11 23 -31 -3 -40 0 -45
14 -9 28 4 37 41 31 21 -3 35 -1 35 5 0 12 -24 22 -51 22 -26 0 -24 9 11 61
33 49 37 69 15 69 -16 0 -75 -84 -75 -106 0 -33 -22 -20 -40 22 -12 26 -36 69
-55 95 -55 74 -68 114 -68 209 1 139 26 195 131 301 48 47 108 109 133 138 42
47 49 51 90 51 32 0 58 -8 90 -28z m74 -1049 c34 -3 76 -1 95 4 53 14 140 -6
153 -35 13 -28 5 -37 -22 -22 -32 17 -43 3 -25 -31 18 -36 10 -77 -12 -58 -8
6 -14 22 -14 35 0 35 -29 30 -41 -6 -13 -37 -25 -38 -33 -5 -10 39 -30 30 -53
-25 -12 -27 -26 -50 -31 -50 -10 0 -38 53 -44 84 -5 33 -27 30 -43 -6 l-14
-33 -13 33 c-12 32 -38 44 -38 18 0 -8 -9 -24 -20 -37 l-19 -24 -1 36 c0 19 5
40 12 47 20 20 -5 37 -32 22 -28 -15 -34 -9 -19 24 9 18 22 27 48 32 20 3 41
7 46 9 6 2 21 2 35 -1 14 -3 52 -8 85 -11z"/>
<path d="M1738 2520 c-3 -8 -18 -46 -32 -85 -14 -38 -34 -83 -45 -98 l-18 -29
-7 29 c-13 56 -29 84 -57 98 -39 21 -62 19 -120 -11 l-51 -26 28 -30 c38 -39
69 -54 127 -63 30 -5 47 -12 47 -21 0 -22 9 -17 61 33 54 52 83 118 77 180 -2
22 -6 32 -10 23z"/>
<path d="M1957 2508 c-8 -29 10 -105 33 -143 10 -16 35 -46 56 -64 32 -31 38
-33 48 -19 6 9 37 21 68 27 63 13 137 68 123 90 -11 19 -85 51 -118 51 -38 0
-82 -45 -97 -101 l-12 -44 -26 50 c-14 28 -35 78 -47 113 -18 50 -24 58 -28
40z"/>
<path d="M1412 2234 c23 -54 68 -112 110 -143 23 -17 46 -31 50 -31 4 0 8 25
8 55 0 32 7 69 16 87 15 29 15 31 -2 23 -11 -4 -44 -10 -74 -12 -50 -5 -60 -2
-88 22 l-33 27 13 -28z"/>
<path d="M2267 2234 c-31 -26 -93 -32 -142 -14 -24 9 -26 8 -20 -7 19 -47 26
-89 20 -119 -3 -19 -2 -34 2 -34 12 0 53 29 91 64 30 28 88 123 80 131 -2 2
-16 -8 -31 -21z"/>
</g>
</svg>
